<?xml version="1.0" standalone="no"?><!DOCTYPE svg PUBLIC "-//W3C//DTD SVG 1.1//EN" "http://www.w3.org/Graphics/SVG/1.1/DTD/svg11.dtd"><svg t="1636958984562" class="icon" viewBox="0 0 1024 1024" version="1.1" xmlns="http://www.w3.org/2000/svg" p-id="9033" xmlns:xlink="http://www.w3.org/1999/xlink" width="200" height="200"><defs><style type="text/css"></style></defs><path d="M846.336 947.2H179.2a30.72 30.72 0 0 1-30.72-30.72V150.528A30.72 30.72 0 0 1 179.2 119.808h146.432a30.72 30.72 0 1 1 0 61.44H209.92v703.232h605.696V181.248h-115.456a30.72 30.72 0 0 1 0-61.44h146.432a30.72 30.72 0 0 1 30.72 30.72v764.672A30.72 30.72 0 0 1 846.336 947.2z" fill="" p-id="9034"></path><path d="M594.688 153.6h-163.84a30.72 30.72 0 1 1 0-61.44h163.84a30.72 30.72 0 0 1 0 61.44zM700.16 520.448H325.376a30.72 30.72 0 1 1 0-61.44h374.784a30.72 30.72 0 1 1 0 61.44zM594.688 369.664H325.376a30.72 30.72 0 0 1 0-61.44h269.312a30.72 30.72 0 0 1 0 61.44z" fill="" p-id="9035"></path><path d="M332.544 640.512m-32 0a32 32 0 1 0 64 0 32 32 0 1 0-64 0Z" fill="" p-id="9036"></path><path d="M460.8 640.512m-32 0a32 32 0 1 0 64 0 32 32 0 1 0-64 0Z" fill="" p-id="9037"></path><path d="M588.8 640.512m-32 0a32 32 0 1 0 64 0 32 32 0 1 0-64 0Z" fill="" p-id="9038"></path></svg>